<svg xmlns="http://www.w3.org/2000/svg" version="1.1" xmlns:xlink="http://www.w3.org/1999/xlink" xmlns:svgjs="http://svgjs.dev/svgjs" viewBox="0 0 800 800"><defs><linearGradient x1="50%" y1="0%" x2="50%" y2="100%" id="wwwhirl-grad"><stop stop-color="#3368e9" stop-opacity="1" offset="45%" data-darkreader-inline-stopcolor="" style="--darkreader-inline-stopcolor: #284a9c;"></stop><stop stop-color="hsl(331, 90%, 56%)" stop-opacity="1" offset="100%" data-darkreader-inline-stopcolor="" style="--darkreader-inline-stopcolor: #a8205d;"></stop></linearGradient></defs><g stroke-width="2" stroke="url(#wwwhirl-grad)" fill="none" stroke-linecap="round"><path d="M-386.00006321300145 577.9218244756528C-386.00006321300145 577.9218244756528 -243.09096833914737 361.41454574176396 -243.09096833914737 361.41454574176396C-243.09096833914737 361.41454574176396 -100.18187346529334 475.0272761664779 -100.18187346529334 475.0272761664779C-100.18187346529334 475.0272761664779 42.72722140856081 177.0618133544922 42.72722140856081 177.0618133544922C42.72722140856081 177.0618133544922 185.6363162824149 517.9000046286342 185.6363162824149 517.9000046286342C185.6363162824149 517.9000046286342 328.54541115626887 277.8127252405593 328.54541115626887 277.8127252405593C328.54541115626887 277.8127252405593 471.45450603012296 622.9381893609169 471.45450603012296 622.9381893609169C471.45450603012296 622.9381893609169 614.3636009039772 339.9781815106858 614.3636009039772 339.9781815106858C614.3636009039772 339.9781815106858 757.2726957778311 457.8781847816154 757.2726957778311 457.8781847816154C757.2726957778311 457.8781847816154 900.1817906516853 367.8454550110873 900.1817906516853 367.8454550110873C900.1817906516853 367.8454550110873 1043.0908855255393 605.7890979760543 1043.0908855255393 605.7890979760543C1043.0908855255393 605.7890979760543 1185.9999803993933 314.2545444333921 1185.9999803993933 314.2545444333921 " transform="rotate(0, 400, 400)"></path><path d="M-353.25006344014935 570.5084170298493C-353.25006344014935 570.5084170298493 -216.29551418603916 363.0222749098724 -216.29551418603916 363.0222749098724C-216.29551418603916 363.0222749098724 -79.34096493192908 471.9011415668899 -79.34096493192908 471.9011415668899C-79.34096493192908 471.9011415668899 57.61358432218117 186.3509063720703 57.61358432218117 186.3509063720703C57.61358432218117 186.3509063720703 194.5681335762913 512.987506343123 194.5681335762913 512.987506343123C194.5681335762913 512.987506343123 331.5226828304013 282.90386359621795 331.5226828304013 282.90386359621795C331.5226828304013 282.90386359621795 468.47723208451157 613.649100044894 468.47723208451157 613.649100044894C468.47723208451157 613.649100044894 605.4317813386219 342.4790925217559 605.4317813386219 342.4790925217559C605.4317813386219 342.4790925217559 742.3863305927318 455.46659565639675 742.3863305927318 455.46659565639675C742.3863305927318 455.46659565639675 879.3408798468422 369.1852296263073 879.3408798468422 369.1852296263073C879.3408798468422 369.1852296263073 1016.2954291009521 597.2145541344007 1016.2954291009521 597.2145541344007C1016.2954291009521 597.2145541344007 1153.2499783550622 317.827273656016 1153.2499783550622 317.827273656016 " transform="rotate(0, 400, 400)"></path><path d="M-320.50006366729724 563.0950095840457C-320.50006366729724 563.0950095840457 -189.50006003293097 364.63000407798086 -189.50006003293097 364.63000407798086C-189.50006003293097 364.63000407798086 -58.500056398564766 468.775006967302 -58.500056398564766 468.775006967302C-58.500056398564766 468.775006967302 72.49994723580147 195.63999938964844 72.49994723580147 195.63999938964844C72.49994723580147 195.63999938964844 203.4999508701677 508.07500805761185 203.4999508701677 508.07500805761185C203.4999508701677 508.07500805761185 334.4999545045339 287.9950019518766 334.4999545045339 287.9950019518766C334.4999545045339 287.9950019518766 465.4999581389002 604.3600107288711 465.4999581389002 604.3600107288711C465.4999581389002 604.3600107288711 596.4999617732664 344.9800035328259 596.4999617732664 344.9800035328259C596.4999617732664 344.9800035328259 727.4999654076325 453.05500653117804 727.4999654076325 453.05500653117804C727.4999654076325 453.05500653117804 858.4999690419988 370.5250042415273 858.4999690419988 370.5250042415273C858.4999690419988 370.5250042415273 989.4999726763651 588.6400102927471 989.4999726763651 588.6400102927471C989.4999726763651 588.6400102927471 1120.4999763107312 321.40000287864 1120.4999763107312 321.40000287864 " transform="rotate(0, 400, 400)"></path><path d="M-287.75006389444513 555.681586879453C-287.75006389444513 555.681586879453 -162.7046058798228 366.23771798730024 -162.7046058798228 366.23771798730024C-162.7046058798228 366.23771798730024 -37.65914786520051 465.648857108925 -37.65914786520051 465.648857108925C-37.65914786520051 465.648857108925 87.38631014942177 204.9290771484375 87.38631014942177 204.9290771484375C87.38631014942177 204.9290771484375 212.43176816404412 503.1624945133117 212.43176816404412 503.1624945133117C212.43176816404412 503.1624945133117 337.47722617866646 293.0861250487462 337.47722617866646 293.0861250487462C337.47722617866646 293.0861250487462 462.5226841932887 595.0709061540591 462.5226841932887 595.0709061540591C462.5226841932887 595.0709061540591 587.568142207911 347.48089928510694 587.568142207911 347.48089928510694C587.568142207911 347.48089928510694 712.6136002225335 450.6434021471703 712.6136002225335 450.6434021471703C712.6136002225335 450.6434021471703 837.6590582371557 371.86476359795824 837.6590582371557 371.86476359795824C837.6590582371557 371.86476359795824 962.7045162517779 580.0654511923044 962.7045162517779 580.0654511923044C962.7045162517779 580.0654511923044 1087.7499742664002 324.97271684247494 1087.7499742664002 324.97271684247494 " transform="rotate(0, 400, 400)"></path><path d="M-255.000064121593 548.2681794336495C-255.000064121593 548.2681794336495 -135.90915172671458 367.8454471554087 -135.90915172671458 367.8454471554087C-135.90915172671458 367.8454471554087 -16.818239331836253 462.52272250933703 -16.818239331836253 462.52272250933703C-16.818239331836253 462.52272250933703 102.27267306304219 214.21817016601562 102.27267306304219 214.21817016601562C102.27267306304219 214.21817016601562 221.36358545792064 498.2499962278006 221.36358545792064 498.2499962278006C221.36358545792064 498.2499962278006 340.4544978527989 298.17726340440487 340.4544978527989 298.17726340440487C340.4544978527989 298.17726340440487 459.5454102476774 585.7818168380362 459.5454102476774 585.7818168380362C459.5454102476774 585.7818168380362 578.6363226425558 349.98181029617695 578.6363226425558 349.98181029617695C578.6363226425558 349.98181029617695 697.7272350374341 448.2318130219516 697.7272350374341 448.2318130219516C697.7272350374341 448.2318130219516 816.8181474323126 373.20453821317824 816.8181474323126 373.20453821317824C816.8181474323126 373.20453821317824 935.909059827191 571.4909073506508 935.909059827191 571.4909073506508C935.909059827191 571.4909073506508 1054.9999722220691 328.5454460650989 1054.9999722220691 328.5454460650989 " transform="rotate(0, 400, 400)"></path><path d="M-222.25006434874086 540.854787246635C-222.25006434874086 540.854787246635 -109.11369757360643 369.4531915823063 -109.11369757360643 369.4531915823063C-109.11369757360643 369.4531915823063 4.0226692015280605 459.39660316853815 4.0226692015280605 459.39660316853815C4.0226692015280605 459.39660316853815 117.15903597666255 223.5072784423828 117.15903597666255 223.5072784423828C117.15903597666255 223.5072784423828 230.29540275179704 493.33751320107854 230.29540275179704 493.33751320107854C230.29540275179704 493.33751320107854 343.4317695269315 303.26841701885263 343.4317695269315 303.26841701885263C343.4317695269315 303.26841701885263 456.5681363020659 576.4927427808024 456.5681363020659 576.4927427808024C456.5681363020659 576.4927427808024 569.7045030772005 352.4827365660361 569.7045030772005 352.4827365660361C569.7045030772005 352.4827365660361 682.8408698523348 445.820239155522 682.8408698523348 445.820239155522C682.8408698523348 445.820239155522 795.9772366274694 374.5443280871873 795.9772366274694 374.5443280871873C795.9772366274694 374.5443280871873 909.1136034026038 562.9163787677862 909.1136034026038 562.9163787677862C909.1136034026038 562.9163787677862 1022.2499701777383 332.11819054651187 1022.2499701777383 332.11819054651187 " transform="rotate(0, 400, 400)"></path><path d="M-189.50006457588876 533.4413645420424C-189.50006457588876 533.4413645420424 -82.31824342049822 371.0609054916257 -82.31824342049822 371.0609054916257C-82.31824342049822 371.0609054916257 24.863577734892317 456.2704533101612 24.863577734892317 456.2704533101612C24.863577734892317 456.2704533101612 132.0453988902829 232.79635620117188 132.0453988902829 232.79635620117188C132.0453988902829 232.79635620117188 239.2272200456735 488.4249996567783 239.2272200456735 488.4249996567783C239.2272200456735 488.4249996567783 346.4090412010639 308.3595401157222 346.4090412010639 308.3595401157222C346.4090412010639 308.3595401157222 453.5908623564545 567.2036382059904 453.5908623564545 567.2036382059904C453.5908623564545 567.2036382059904 560.772683511845 354.9836323183171 560.772683511845 354.9836323183171C560.772683511845 354.9836323183171 667.9545046672356 443.4086347715143 667.9545046672356 443.4086347715143C667.9545046672356 443.4086347715143 775.1363258226263 375.8840874436182 775.1363258226263 375.8840874436182C775.1363258226263 375.8840874436182 882.3181469780168 554.3418196673435 882.3181469780168 554.3418196673435C882.3181469780168 554.3418196673435 989.4999681334073 335.6909045103468 989.4999681334073 335.6909045103468 " transform="rotate(0, 400, 400)"></path><path d="M-156.75006480303665 526.0279570962388C-156.75006480303665 526.0279570962388 -55.52278926739004 372.66863465973415 -55.52278926739004 372.66863465973415C-55.52278926739004 372.66863465973415 45.704486268256574 453.1443187105732 45.704486268256574 453.1443187105732C45.704486268256574 453.1443187105732 146.9317618039032 242.08544921875 146.9317618039032 242.08544921875C146.9317618039032 242.08544921875 248.15903733954985 483.5125013712672 248.15903733954985 483.5125013712672C248.15903733954985 483.5125013712672 349.3863128751964 313.4506784713809 349.3863128751964 313.4506784713809C349.3863128751964 313.4506784713809 450.61358841084314 557.9145488899675 450.61358841084314 557.9145488899675C450.61358841084314 557.9145488899675 551.8408639464898 357.4845433293872 551.8408639464898 357.4845433293872C551.8408639464898 357.4845433293872 653.0681394821363 440.99704564629565 653.0681394821363 440.99704564629565C653.0681394821363 440.99704564629565 754.2954150177831 377.2238620588382 754.2954150177831 377.2238620588382C754.2954150177831 377.2238620588382 855.5226905534296 545.7672758256899 855.5226905534296 545.7672758256899C855.5226905534296 545.7672758256899 956.7499660890762 339.2636337329708 956.7499660890762 339.2636337329708 " transform="rotate(0, 400, 400)"></path><path d="M-124.00005740079003 518.6145496504353C-124.00005740079003 518.6145496504353 -28.727327484887326 374.2763638278426 -28.727327484887326 374.2763638278426C-28.727327484887326 374.2763638278426 66.54540243101542 450.01818411098526 66.54540243101542 450.01818411098526C66.54540243101542 450.01818411098526 161.8181323469181 251.37454223632812 161.8181323469181 251.37454223632812C161.8181323469181 251.37454223632812 257.09086226282085 478.6000030857561 257.09086226282085 478.6000030857561C257.09086226282085 478.6000030857561 352.3635921787236 318.5418168270395 352.3635921787236 318.5418168270395C352.3635921787236 318.5418168270395 447.6363220946263 548.6254595739446 447.6363220946263 548.6254595739446C447.6363220946263 548.6254595739446 542.909052010529 359.9854543404572 542.909052010529 359.9854543404572C542.909052010529 359.9854543404572 638.1817819264317 438.58545652107694 638.1817819264317 438.58545652107694C638.1817819264317 438.58545652107694 733.4545118423345 378.5636366740582 733.4545118423345 378.5636366740582C733.4545118423345 378.5636366740582 828.7272417582371 537.1927319840363 828.7272417582371 537.1927319840363C828.7272417582371 537.1927319840363 923.9999716741397 342.8363629555947 923.9999716741397 342.8363629555947 " transform="rotate(0, 400, 400)"></path><path d="M-91.25002711035978 511.2011498340262C-91.25002711035978 511.2011498340262 -1.9318428142009907 375.8841006253456 -1.9318428142009907 375.8841006253456C-1.9318428142009907 375.8841006253456 87.3863414819578 446.89205714079185 87.3863414819578 446.89205714079185C87.3863414819578 446.89205714079185 176.7045257781166 260.6636428833008 176.7045257781166 260.6636428833008C176.7045257781166 260.6636428833008 266.0227100742754 473.68751242963947 266.0227100742754 473.68751242963947C266.0227100742754 473.68751242963947 355.34089437043417 323.6329628120927 355.34089437043417 323.6329628120927C355.34089437043417 323.6329628120927 444.6590786665929 539.3363778873162 444.6590786665929 539.3363778873162C444.6590786665929 539.3363778873162 533.9772629627518 362.48637298092183 533.9772629627518 362.48637298092183C533.9772629627518 362.48637298092183 623.2954472589105 436.1738750252528 623.2954472589105 436.1738750252528C623.2954472589105 436.1738750252528 712.6136315550694 379.90341891867274 712.6136315550694 379.90341891867274C712.6136315550694 379.90341891867274 801.9318158512281 528.6181957717772 801.9318158512281 528.6181957717772C801.9318158512281 528.6181957717772 891.2500001473868 346.4090998076132 891.2500001473868 346.4090998076132 " transform="rotate(0, 400, 400)"></path><path d="M-58.49999681992955 503.78773475882804C-58.49999681992955 503.78773475882804 24.863641856485344 377.49182216405956 24.863641856485344 377.49182216405956C24.863641856485344 377.49182216405956 108.22728053290018 443.7659149118094 108.22728053290018 443.7659149118094C108.22728053290018 443.7659149118094 191.59091920931508 269.9527282714844 191.59091920931508 269.9527282714844C191.59091920931508 269.9527282714844 274.95455788572997 468.77500651473383 274.95455788572997 468.77500651473383C274.95455788572997 468.77500651473383 358.3181965621448 328.72409353835684 358.3181965621448 328.72409353835684C358.3181965621448 328.72409353835684 441.68183523855964 530.0472809418987 441.68183523855964 530.0472809418987C441.68183523855964 530.0472809418987 525.0454739149745 364.9872763625973 525.0454739149745 364.9872763625973C525.0454739149745 364.9872763625973 608.4091125913894 433.76227827063957 608.4091125913894 433.76227827063957C608.4091125913894 433.76227827063957 691.7727512678043 381.2431859044982 691.7727512678043 381.2431859044982C691.7727512678043 381.2431859044982 775.1363899442192 520.0436443007289 775.1363899442192 520.0436443007289C775.1363899442192 520.0436443007289 858.500028620634 349.98182140084265 858.500028620634 349.98182140084265 " transform="rotate(0, 400, 400)"></path><path d="M-25.749997047077443 496.37431968363C-25.749997047077443 496.37431968363 51.659096009593526 379.0995437027735 51.659096009593526 379.0995437027735C51.659096009593526 379.0995437027735 129.06818906626447 440.6397726828269 129.06818906626447 440.6397726828269C129.06818906626447 440.6397726828269 206.47728212293543 279.24181365966797 206.47728212293543 279.24181365966797C206.47728212293543 279.24181365966797 283.88637517960643 463.8625005998282 283.88637517960643 463.8625005998282C283.88637517960643 463.8625005998282 361.2954682362773 333.815224264621 361.2954682362773 333.815224264621C361.2954682362773 333.815224264621 438.70456129294826 520.7581839964814 438.70456129294826 520.7581839964814C438.70456129294826 520.7581839964814 516.1136543496193 367.4881797442729 516.1136543496193 367.4881797442729C516.1136543496193 367.4881797442729 593.5227474062901 431.3506815160264 593.5227474062901 431.3506815160264C593.5227474062901 431.3506815160264 670.9318404629612 382.58295289032367 670.9318404629612 382.58295289032367C670.9318404629612 382.58295289032367 748.3409335196321 511.46909282968085 748.3409335196321 511.46909282968085C748.3409335196321 511.46909282968085 825.750026576303 353.5545429940721 825.750026576303 353.5545429940721 " transform="rotate(0, 400, 400)"></path><path d="M7.000002725774678 488.9609122378264C7.000002725774678 488.9609122378264 78.45455016270171 380.707272870882 78.45455016270171 380.707272870882C78.45455016270171 380.707272870882 149.90909759962872 437.51363808323896 149.90909759962872 437.51363808323896C149.90909759962872 437.51363808323896 221.3636450365558 288.5309066772461 221.3636450365558 288.5309066772461C221.3636450365558 288.5309066772461 292.81819247348284 458.9500023143171 292.81819247348284 458.9500023143171C292.81819247348284 458.9500023143171 364.2727399104098 338.90636262027965 364.2727399104098 338.90636262027965C364.2727399104098 338.90636262027965 435.72728734733687 511.46909468045845 435.72728734733687 511.46909468045845C435.72728734733687 511.46909468045845 507.18183478426397 369.9890907553429 507.18183478426397 369.9890907553429C507.18183478426397 369.9890907553429 578.636382221191 428.9390923908077 578.636382221191 428.9390923908077C578.636382221191 428.9390923908077 650.0909296581181 383.92272750554366 650.0909296581181 383.92272750554366C650.0909296581181 383.92272750554366 721.545477095045 502.89454898802717 721.545477095045 502.89454898802717C721.545477095045 502.89454898802717 793.000024531972 357.12727221669604 793.000024531972 357.12727221669604 " transform="rotate(0, 400, 400)"></path><path d="M39.750002498626785 481.5474895332338C39.750002498626785 481.5474895332338 105.25000431580992 382.31498678020137 105.25000431580992 382.31498678020137C105.25000431580992 382.31498678020137 170.750006132993 434.38748822486195 170.750006132993 434.38748822486195C170.750006132993 434.38748822486195 236.25000795017615 297.81998443603516 236.25000795017615 297.81998443603516C236.25000795017615 297.81998443603516 301.75000976735924 454.03748877001686 301.75000976735924 454.03748877001686C301.75000976735924 454.03748877001686 367.25001158454234 343.99748571714923 367.25001158454234 343.99748571714923C367.25001158454234 343.99748571714923 432.7500134017255 502.1799901056465 432.7500134017255 502.1799901056465C432.7500134017255 502.1799901056465 498.25001521890863 372.4899865076239 498.25001521890863 372.4899865076239C498.25001521890863 372.4899865076239 563.7500170360917 426.52748800679996 563.7500170360917 426.52748800679996C563.7500170360917 426.52748800679996 629.2500188532748 385.2624868619746 629.2500188532748 385.2624868619746C629.2500188532748 385.2624868619746 694.750020670458 494.3199898875845 694.750020670458 494.3199898875845C694.750020670458 494.3199898875845 760.250022487641 360.6999861805309 760.250022487641 360.6999861805309 " transform="rotate(0, 400, 400)"></path><path d="M72.50000227147889 474.13408971682475C72.50000227147889 474.13408971682475 132.0454584689181 383.92272357770435 132.0454584689181 383.92272357770435C132.0454584689181 383.92272357770435 191.59091466635726 431.2613612546685 191.59091466635726 431.2613612546685C191.59091466635726 431.2613612546685 251.1363708637965 307.1090850830078 251.1363708637965 307.1090850830078C251.1363708637965 307.1090850830078 310.6818270612357 449.1249981139003 310.6818270612357 449.1249981139003C310.6818270612357 449.1249981139003 370.22728325867485 349.08863170220246 370.22728325867485 349.08863170220246C370.22728325867485 349.08863170220246 429.7727394561141 492.8909084190181 429.7727394561141 492.8909084190181C429.7727394561141 492.8909084190181 489.3181956535533 374.9909051480885 489.3181956535533 374.9909051480885C489.3181956535533 374.9909051480885 548.8636518509925 424.11590651097583 548.8636518509925 424.11590651097583C548.8636518509925 424.11590651097583 608.4091080484317 386.6022691065891 608.4091080484317 386.6022691065891C608.4091080484317 386.6022691065891 667.9545642458709 485.7454536753254 667.9545642458709 485.7454536753254C667.9545642458709 485.7454536753254 727.50002044331 364.27272303254944 727.50002044331 364.27272303254944 " transform="rotate(0, 400, 400)"></path><path d="M105.250002044331 466.7206822710212C105.250002044331 466.7206822710212 158.84091262202628 385.53045274581285 158.84091262202628 385.53045274581285C158.84091262202628 385.53045274581285 212.43182319972155 428.1352266550806 212.43182319972155 428.1352266550806C212.43182319972155 428.1352266550806 266.0227337774169 316.39817810058594 266.0227337774169 316.39817810058594C266.0227337774169 316.39817810058594 319.6136443551121 444.2124998283891 319.6136443551121 444.2124998283891C319.6136443551121 444.2124998283891 373.20455493280735 354.1797700578611 373.20455493280735 354.1797700578611C373.20455493280735 354.1797700578611 426.79546551050265 483.6018191029952 426.79546551050265 483.6018191029952C426.79546551050265 483.6018191029952 480.3863760881979 377.49181615915853 480.3863760881979 377.49181615915853C480.3863760881979 377.49181615915853 533.9772866658932 421.7043173857571 533.9772866658932 421.7043173857571C533.9772866658932 421.7043173857571 587.5681972435885 387.9420437218091 587.5681972435885 387.9420437218091C587.5681972435885 387.9420437218091 641.1591078212838 477.1709098336718 641.1591078212838 477.1709098336718C641.1591078212838 477.1709098336718 694.750018398979 367.8454522551734 694.750018398979 367.8454522551734 " transform="rotate(0, 400, 400)"></path><path d="M138.00000181718312 459.30727482521763C138.00000181718312 459.30727482521763 185.63636677513446 387.1381819139213 185.63636677513446 387.1381819139213C185.63636677513446 387.1381819139213 233.27273173308583 425.0090920554926 233.27273173308583 425.0090920554926C233.27273173308583 425.0090920554926 280.9090966910372 325.68727111816406 280.9090966910372 325.68727111816406C280.9090966910372 325.68727111816406 328.5454616489885 439.300001542878 328.5454616489885 439.300001542878C328.5454616489885 439.300001542878 376.1818266069399 359.27090841351975 376.1818266069399 359.27090841351975C376.1818266069399 359.27090841351975 423.81819156489126 474.3127297869723 423.81819156489126 474.3127297869723C423.81819156489126 474.3127297869723 471.4545565228426 379.9927271702286 471.4545565228426 379.9927271702286C471.4545565228426 379.9927271702286 519.0909214807939 419.29272826053847 519.0909214807939 419.29272826053847C519.0909214807939 419.29272826053847 566.7272864387453 389.2818183370291 566.7272864387453 389.2818183370291C566.7272864387453 389.2818183370291 614.3636513966967 468.59636599201815 614.3636513966967 468.59636599201815C614.3636513966967 468.59636599201815 662.000016354648 371.41818147779736 662.000016354648 371.41818147779736 " transform="rotate(0, 400, 400)"></path><path d="M170.74998633124616 451.893867379414C170.74998633124616 451.893867379414 212.4318056694536 388.74591108202975 212.4318056694536 388.74591108202975C212.4318056694536 388.74591108202975 254.11362500766103 421.8829574559047 254.11362500766103 421.8829574559047C254.11362500766103 421.8829574559047 295.7954443458685 334.9763641357422 295.7954443458685 334.9763641357422C295.7954443458685 334.9763641357422 337.4772636840759 434.3875032573669 337.4772636840759 434.3875032573669C337.4772636840759 434.3875032573669 379.1590830222833 364.36204676917845 379.1590830222833 364.36204676917845C379.1590830222833 364.36204676917845 420.84090236049076 465.0236404709494 420.84090236049076 465.0236404709494C420.84090236049076 465.0236404709494 462.5227216986982 382.49363818129865 462.5227216986982 382.49363818129865C462.5227216986982 382.49363818129865 504.20454103690565 416.8811391353198 504.20454103690565 416.8811391353198C504.20454103690565 416.8811391353198 545.8863603751131 390.6215929522491 545.8863603751131 390.6215929522491C545.8863603751131 390.6215929522491 587.5681797133205 460.02182215036447 587.5681797133205 460.02182215036447C587.5681797133205 460.02182215036447 629.249999051528 374.9909107004213 629.249999051528 374.9909107004213 " transform="rotate(0, 400, 400)"></path><path d="M203.49998610409827 444.4804561189132C203.49998610409827 444.4804561189132 239.2272598225618 390.353636435441 239.2272598225618 390.353636435441C239.2272598225618 390.353636435441 274.9545335410253 418.75681904161945 274.9545335410253 418.75681904161945C274.9545335410253 418.75681904161945 310.68180725948883 344.26545333862305 310.68180725948883 344.26545333862305C310.68180725948883 344.26545333862305 346.4090809779524 429.47500115715854 346.4090809779524 429.47500115715854C346.4090809779524 429.47500115715854 382.1363546964159 369.4531813101398 382.1363546964159 369.4531813101398C382.1363546964159 369.4531813101398 417.8636284148794 455.73454734022926 417.8636284148794 455.73454734022926C417.8636284148794 455.73454734022926 453.5909021333429 384.99454537767144 453.5909021333429 384.99454537767144C453.5909021333429 384.99454537767144 489.3181758518064 414.46954619540384 489.3181758518064 414.46954619540384C489.3181758518064 414.46954619540384 525.04544957027 391.96136375277183 525.04544957027 391.96136375277183C525.04544957027 391.96136375277183 560.7727232887335 451.4472744940136 560.7727232887335 451.4472744940136C560.7727232887335 451.4472744940136 596.499997007197 378.563636108348 596.499997007197 378.563636108348 " transform="rotate(0, 400, 400)"></path><path d="M236.2499858769504 437.0670448584124C236.2499858769504 437.0670448584124 266.02271397567 391.9613617888522 266.02271397567 391.9613617888522C266.02271397567 391.9613617888522 295.7954420743896 415.63068062733424 295.7954420743896 415.63068062733424C295.7954420743896 415.63068062733424 325.5681701731092 353.5545425415039 325.5681701731092 353.5545425415039C325.5681701731092 353.5545425415039 355.3408982718288 424.5624990569502 355.3408982718288 424.5624990569502C355.3408982718288 424.5624990569502 385.11362637054833 374.5443158511012 385.11362637054833 374.5443158511012C385.11362637054833 374.5443158511012 414.886354469268 446.4454542095091 414.886354469268 446.4454542095091C414.886354469268 446.4454542095091 444.6590825679876 387.49545257404424 444.6590825679876 387.49545257404424C444.6590825679876 387.49545257404424 474.4318106667072 412.0579532554879 474.4318106667072 412.0579532554879C474.4318106667072 412.0579532554879 504.2045387654268 393.30113455329456 504.2045387654268 393.30113455329456C504.2045387654268 393.30113455329456 533.9772668641464 442.8727268376627 533.9772668641464 442.8727268376627C533.9772668641464 442.8727268376627 563.7499949628659 382.13636151627475 563.7499949628659 382.13636151627475 " transform="rotate(0, 400, 400)"></path><path d="M268.9999856498025 429.6536374126088C268.9999856498025 429.6536374126088 292.81816812877815 393.5690909569606 292.81816812877815 393.5690909569606C292.81816812877815 393.5690909569606 316.63635060775385 412.5045460277463 316.63635060775385 412.5045460277463C316.63635060775385 412.5045460277463 340.4545330867295 362.84363555908203 340.4545330867295 362.84363555908203C340.4545330867295 362.84363555908203 364.2727155657052 419.650000771439 364.2727155657052 419.650000771439C364.2727155657052 419.650000771439 388.0908980446809 379.63545420675985 388.0908980446809 379.63545420675985C388.0908980446809 379.63545420675985 411.9090805236566 437.15636489348617 411.9090805236566 437.15636489348617C411.9090805236566 437.15636489348617 435.72726300263224 389.9963635851143 435.72726300263224 389.9963635851143C435.72726300263224 389.9963635851143 459.5454454816079 409.64636413026926 459.5454454816079 409.64636413026926C459.5454454816079 409.64636413026926 483.3636279605836 394.64090916851455 483.3636279605836 394.64090916851455C483.3636279605836 394.64090916851455 507.1818104395593 434.2981829960091 507.1818104395593 434.2981829960091C507.1818104395593 434.2981829960091 530.9999929185349 385.7090907388987 530.9999929185349 385.7090907388987 " transform="rotate(0, 400, 400)"></path><path d="M301.7500006814437 422.2402280594566C301.7500006814437 422.2402280594566 319.6136375406754 395.1768182177205 319.6136375406754 395.1768182177205C319.6136375406754 395.1768182177205 337.4772743999072 409.3784095208097 337.4772743999072 409.3784095208097C337.4772743999072 409.3784095208097 355.3409112591389 372.1327266693115 355.3409112591389 372.1327266693115C355.3409112591389 372.1327266693115 373.2045481183707 414.7375005785793 373.2045481183707 414.7375005785793C373.2045481183707 414.7375005785793 391.06818497760247 384.7265906550699 391.06818497760247 384.7265906550699C391.06818497760247 384.7265906550699 408.9318218368342 427.8672736701146 408.9318218368342 427.8672736701146C408.9318218368342 427.8672736701146 426.795458696066 392.4972726888357 426.795458696066 392.4972726888357C426.795458696066 392.4972726888357 444.65909555529777 407.2347730977019 444.65909555529777 407.2347730977019C444.65909555529777 407.2347730977019 462.5227324145295 395.9806818763859 462.5227324145295 395.9806818763859C462.5227324145295 395.9806818763859 480.38636927376126 425.7236372470068 480.38636927376126 425.7236372470068C480.38636927376126 425.7236372470068 498.250006132993 389.281818054174 498.250006132993 389.281818054174 " transform="rotate(0, 400, 400)"></path><path d="M334.5000004542958 414.8268187063044C334.5000004542958 414.8268187063044 346.40909169378364 396.7845454784803 346.40909169378364 396.7845454784803C346.40909169378364 396.7845454784803 358.3181829332715 406.25227301387315 358.3181829332715 406.25227301387315C358.3181829332715 406.25227301387315 370.2272741727593 381.421817779541 370.2272741727593 381.421817779541C370.2272741727593 381.421817779541 382.13636541224713 409.8250003857195 382.13636541224713 409.8250003857195C382.13636541224713 409.8250003857195 394.045456651735 389.8177271033799 394.045456651735 389.8177271033799C394.045456651735 389.8177271033799 405.95454789122283 418.5781824467431 405.95454789122283 418.5781824467431C405.95454789122283 418.5781824467431 417.8636391307107 394.99818179255715 417.8636391307107 394.99818179255715C417.8636391307107 394.99818179255715 429.7727303701985 404.82318206513463 429.7727303701985 404.82318206513463C429.7727303701985 404.82318206513463 441.6818216096863 397.3204545842573 441.6818216096863 397.3204545842573C441.6818216096863 397.3204545842573 453.5909128491742 417.1490914980045 453.5909128491742 417.1490914980045C453.5909128491742 417.1490914980045 465.50000408866197 392.85454536944934 465.50000408866197 392.85454536944934 " transform="rotate(0, 400, 400)"></path><path d="M367.2499964124506 407.41340744580356C367.2499964124506 407.41340744580356 373.2045420321945 398.39227083189155 373.2045420321945 398.39227083189155C373.2045420321945 398.39227083189155 379.1590876519385 403.12613459958794 379.1590876519385 403.12613459958794C379.1590876519385 403.12613459958794 385.1136332716824 390.7109069824219 385.1136332716824 390.7109069824219C385.1136332716824 390.7109069824219 391.0681788914263 404.9124982855111 391.0681788914263 404.9124982855111C391.0681788914263 404.9124982855111 397.0227245111702 394.90886164434136 397.0227245111702 394.90886164434136C397.0227245111702 394.90886164434136 402.9772701309141 409.2890893160229 402.9772701309141 409.2890893160229C402.9772701309141 409.2890893160229 408.9318157506581 397.49908898892994 408.9318157506581 397.49908898892994C408.9318157506581 397.49908898892994 414.88636137040197 402.4115891252187 414.88636137040197 402.4115891252187C414.88636137040197 402.4115891252187 420.84090699014587 398.66022538478 420.84090699014587 398.66022538478C420.84090699014587 398.66022538478 426.7954526098898 408.5745438416536 426.7954526098898 408.5745438416536C426.7954526098898 408.5745438416536 432.7499982296337 396.42727077737607 432.7499982296337 396.42727077737607 " transform="rotate(0, 400, 400)"></path></g></svg>